<?xml version="1.0" encoding="UTF-8" standalone="no"?>
<!-- Generator: Adobe Illustrator 18.0.0, SVG Export Plug-In . SVG Version: 6.00 Build 0)  -->

<svg
   version="1.1"
   id="Capa_1"
   x="0px"
   y="0px"
   viewBox="0 0 24.000001 24.000001"
   xml:space="preserve"
   sodipodi:docname="external.svg"
   width="24"
   height="24"
   inkscape:version="1.1.2 (08b2f3d93c, 2022-04-05)"
   xmlns:inkscape="http://www.inkscape.org/namespaces/inkscape"
   xmlns:sodipodi="http://sodipodi.sourceforge.net/DTD/sodipodi-0.dtd"
   xmlns="http://www.w3.org/2000/svg"
   xmlns:svg="http://www.w3.org/2000/svg"><defs
   id="defs41" /><sodipodi:namedview
   id="namedview39"
   pagecolor="#505050"
   bordercolor="#ffffff"
   borderopacity="1"
   inkscape:pageshadow="0"
   inkscape:pageopacity="0"
   inkscape:pagecheckerboard="1"
   showgrid="false"
   width="32px"
   inkscape:zoom="3.6906242"
   inkscape:cx="13.547844"
   inkscape:cy="-10.973753"
   inkscape:window-width="1920"
   inkscape:window-height="1009"
   inkscape:window-x="0"
   inkscape:window-y="0"
   inkscape:window-maximized="1"
   inkscape:current-layer="Capa_1" />
<g
   id="g6"
   transform="matrix(0.10724055,0,0,0.10708253,1.5538053,1.5691978)">
	<path
   d="m 185.818,2.161 h -57.04 c -4.971,0 -9,4.029 -9,9 0,4.971 4.029,9 9,9 h 35.312 l -86.3,86.3 c -3.515,3.515 -3.515,9.213 0,12.728 1.758,1.757 4.061,2.636 6.364,2.636 2.303,0 4.606,-0.879 6.364,-2.636 l 86.3,-86.3 v 35.313 c 0,4.971 4.029,9 9,9 4.971,0 9,-4.029 9,-9 v -57.04 c 0,-4.972 -4.029,-9.001 -9,-9.001 z"
   id="path2" />
	<path
   d="m 149,77.201 c -4.971,0 -9,4.029 -9,9 v 88.456 H 18 v -122 h 93.778 c 4.971,0 9,-4.029 9,-9 0,-4.971 -4.029,-9 -9,-9 H 9 c -4.971,0 -9,4.029 -9,9 v 140 c 0,4.971 4.029,9 9,9 h 140 c 4.971,0 9,-4.029 9,-9 V 86.201 c 0,-4.971 -4.029,-9 -9,-9 z"
   id="path4" />
</g>
<g
   id="g8">
</g>
<g
   id="g10">
</g>
<g
   id="g12">
</g>
<g
   id="g14">
</g>
<g
   id="g16">
</g>
<g
   id="g18">
</g>
<g
   id="g20">
</g>
<g
   id="g22">
</g>
<g
   id="g24">
</g>
<g
   id="g26">
</g>
<g
   id="g28">
</g>
<g
   id="g30">
</g>
<g
   id="g32">
</g>
<g
   id="g34">
</g>
<g
   id="g36">
</g>
</svg>
