<?xml version="1.0" encoding="UTF-8" standalone="no"?>
<svg
   width="24"
   height="24"
   viewBox="0 0 24 24"
   version="1.1"
   id="svg4"
   sodipodi:docname="github.svg"
   inkscape:version="1.1.2 (08b2f3d93c, 2022-04-05)"
   xmlns:inkscape="http://www.inkscape.org/namespaces/inkscape"
   xmlns:sodipodi="http://sodipodi.sourceforge.net/DTD/sodipodi-0.dtd"
   xmlns="http://www.w3.org/2000/svg"
   xmlns:svg="http://www.w3.org/2000/svg">
  <defs
     id="defs8" />
  <sodipodi:namedview
     id="namedview6"
     pagecolor="#505050"
     bordercolor="#ffffff"
     borderopacity="1"
     inkscape:pageshadow="0"
     inkscape:pageopacity="0"
     inkscape:pagecheckerboard="1"
     showgrid="false"
     width="24px"
     inkscape:zoom="22.46875"
     inkscape:cx="15.977747"
     inkscape:cy="5.3184979"
     inkscape:window-width="1920"
     inkscape:window-height="1009"
     inkscape:window-x="0"
     inkscape:window-y="0"
     inkscape:window-maximized="1"
     inkscape:current-layer="svg4" />
  <path
     d="m 12.000732,0.55980838 c -6.48002,0 -11.7298695,5.25424832 -11.7298695,11.72986862 0,5.185335 3.3606075,9.580371 8.0180986,11.130913 0.5886929,0.110701 0.8012967,-0.252192 0.8012967,-0.565966 0,-0.278585 -0.0066,-1.015367 -0.010997,-1.993345 -3.2645689,0.706725 -3.9522325,-1.576934 -3.9522325,-1.576934 -0.5344422,-1.351868 -1.305681,-1.71476 -1.305681,-1.71476 -1.0615532,-0.725053 0.084308,-0.709658 0.084308,-0.709658 1.1759194,0.07991 1.79467,1.205978 1.79467,1.205978 1.0461577,1.79467 2.7447893,1.275623 3.4170575,0.973579 0.1026363,-0.755844 0.408346,-1.275623 0.7411811,-1.565205 -2.604031,-0.293979 -5.3422223,-1.302015 -5.3422223,-5.796754 0,-1.283688 0.4545324,-2.3291122 1.2059772,-3.150203 C 5.5925575,8.2333422 5.1952082,7.0383617 5.8256886,5.4225723 c 0,0 0.9816435,-0.3130409 3.225714,1.2030447 0.9391227,-0.2602565 1.9361624,-0.3900182 2.9324664,-0.3966162 0.997039,0.0066 1.993345,0.1370928 2.932468,0.3966162 2.230874,-1.5160856 3.211784,-1.2030447 3.211784,-1.2030447 0.629748,1.6157894 0.232399,2.8100367 0.118032,3.1047497 0.744114,0.8210908 1.198646,1.867248 1.198646,3.150203 0,4.505003 -2.741857,5.498376 -5.34882,5.785024 0.407613,0.351163 0.789567,1.073284 0.789567,2.169293 0,1.56887 -0.01466,2.832764 -0.01466,3.214717 0,0.304977 0.205273,0.671535 0.809362,0.553504 4.691947,-1.534414 8.048889,-5.933115 8.048889,-11.111119 -3e-6,-6.4756205 -5.249853,-11.72986874 -11.729871,-11.72986874 z"
     id="path2"
     style="stroke-width:0.733117" />
</svg>
