<?xml version="1.0" encoding="UTF-8"?>
<!-- Created with Inkscape (http://www.inkscape.org/) -->
<svg width="135" height="28" version="1.1" viewBox="0 0 35.719 7.4083" xmlns="http://www.w3.org/2000/svg">
 <rect x=".22174" y=".20418" width="35.275" height="7" ry="1.2814" fill="#4527a0" stroke-width="0"/>
 <g fill="#ede7f6" stroke-width=".26458" aria-label="Live Demo">
  <path d="m6.3376 1.981q0.21222 0 0.339 0.11851 0.12678 0.11851 0.12402 0.29214l-0.046853 2.3923 1.1851-0.052365q0.12954-0.00827 0.226 0.093706 0.096463 0.099219 0.093706 0.22875v0.00551q0 0.1819-0.09095 0.27836-0.093707 0.093706-0.22875 0.093706h-1.5847q-0.15985 0-0.27285-0.11024-0.11024-0.11024-0.11024-0.27285v-2.6569q0-0.16536 0.11851-0.28663 0.11851-0.12402 0.23978-0.12402z"/>
  <path d="m8.9807 5.4509q-0.17088 0-0.29214-0.11851-0.11851-0.12127-0.11851-0.29214v-1.6261q0-0.17088 0.12127-0.29214 0.12402-0.12127 0.28939-0.12127h0.00551q0.16536 0 0.28663 0.12127 0.12127 0.12127 0.12127 0.29214v1.6261q0 0.17088-0.12127 0.29214-0.12127 0.12127-0.28663 0.11851zm0.38034-3.1033q0 0.17914-0.12678 0.30317-0.12402 0.12402-0.29766 0.12402-0.17639 0-0.29766-0.12402-0.12127-0.12402-0.12402-0.30317 0-0.17914 0.12402-0.30041 0.12127-0.12402 0.29766-0.12127 0.17088 0 0.29766 0.11851 0.12678 0.12127 0.12678 0.30317z"/>
  <path d="m11.687 2.9318t0.01102 0q0.20119 0 0.31695 0.16261 0.113 0.1571 0.0441 0.35002l-0.54295 1.5544q-0.0689 0.20119-0.24805 0.32797-0.17914 0.12678-0.39412 0.12402h-0.01102q-0.22049 0-0.39688-0.13229-0.17639-0.13505-0.23703-0.33073l-0.48783-1.5434q-0.060634-0.19568 0.049609-0.35002 0.11024-0.15985 0.31144-0.16261h0.04961q0.12127 0 0.23151 0.07717 0.11024 0.079926 0.14056 0.19568 0.26458 0.97841 0.3638 1.4938h0.01654q0.09371-0.44373 0.41617-1.4938 0.03583-0.11851 0.14056-0.19568 0.11024-0.07717 0.226-0.07717z"/>
  <path d="m13.625 3.4031q-0.19568 0-0.38585 0.16812-0.12127 0.10749-0.16812 0.35002h1.2072q-0.09095-0.3197-0.2701-0.41892-0.17914-0.099219-0.38309-0.099219zm1.2209 0.77721v0.00276q0 0.23151-0.22048 0.23151h-1.5351q0.07993 0.2508 0.16261 0.33073 0.30592 0.28112 0.8158 0.052365l0.28388-0.12678q0.18466-0.082682 0.28388 0.057878 0.09922 0.14056 0.06615 0.28939l-0.0055 0.00276q-0.02756 0.12402-0.25356 0.24805-0.32797 0.1819-0.90399 0.17639-0.41341 0-0.79926-0.36931-0.3831-0.36931-0.3831-0.89572 0-0.52917 0.36931-0.90399 0.37207-0.37207 0.87643-0.3638 0.50436 0.00827 0.87368 0.36105 0.36931 0.35278 0.36931 0.90675z"/>
  <path d="m17.607 5.0678t0.0028 0q0.52917 0 0.90124-0.34175 0.339-0.30868 0.339-1.1906 0-0.51263-0.339-0.82407-0.37207-0.34175-0.90124-0.34175 0 0-0.0028 0-0.11024 0-0.19017 0.07717-0.07717 0.07717-0.07717 0.19568v2.1525q0 0.113 0.07717 0.19293 0.07993 0.079926 0.19017 0.079926zm-0.7717-3.0537q0.59256-0.041341 0.77997-0.041341 0.92604 0 1.5351 0.47404 0.60909 0.47404 0.60909 1.3064 0 0.74965-0.51263 1.2072-0.55397 0.48231-1.5406 0.48231-0.1819 0-0.86541-0.033073-0.11024-0.00551-0.1819-0.079926-0.0689-0.07717-0.0689-0.18741v-2.8663q0-0.10473 0.07166-0.1819 0.0689-0.068902 0.17363-0.079926z"/>
  <path d="m21.298 3.4031q-0.19568 0-0.38585 0.16812-0.12127 0.10749-0.16812 0.35002h1.2072q-0.090951-0.3197-0.2701-0.41892-0.17914-0.099219-0.3831-0.099219zm1.2209 0.77721v0.00276q0 0.23151-0.22049 0.23151h-1.5351q0.07993 0.2508 0.16261 0.33073 0.30592 0.28112 0.8158 0.052365l0.28388-0.12678q0.18466-0.082682 0.28388 0.057878 0.09922 0.14056 0.06615 0.28939l-0.0055 0.00276q-0.02756 0.12402-0.25356 0.24805-0.32797 0.1819-0.90399 0.17639-0.41341 0-0.79926-0.36931-0.38309-0.36931-0.38309-0.89572 0-0.52917 0.36931-0.90399 0.37207-0.37207 0.87643-0.3638 0.50436 0.00827 0.87368 0.36105 0.36931 0.35278 0.36931 0.90675z"/>
  <path d="m26.821 4.1307t0 0.98943q0 0.14332-0.08819 0.23702-0.08819 0.09095-0.27285 0.09095h-0.0055q-0.36105 0-0.36105-0.32797v-1.3146q0-0.1819-0.1378-0.31419-0.13505-0.12954-0.31695-0.12402-0.1819 0.00551-0.30041 0.1378-0.12127 0.13505-0.12127 0.31419v1.3009q0 0.14332-0.08544 0.23702-0.08544 0.093707-0.27561 0.09095h-0.07166q-0.18466 0-0.27285-0.093706-0.08819-0.093707-0.08819-0.23427v-1.3146q0-0.1819-0.13229-0.31419-0.13229-0.13229-0.31695-0.12402-0.18741 0.00551-0.30317 0.14332-0.11576 0.14056-0.11851 0.30868v1.3009q0 0.14607-0.09095 0.23702-0.09095 0.09095-0.27561 0.09095h-0.05236q-0.18466 0-0.27285-0.088194-0.08819-0.088194-0.08819-0.23978v-1.9485q0-0.11024 0.0689-0.1819 0.0689-0.068902 0.1819-0.071658h0.29214q0.09922 0 0.17363 0.074414 0.07441 0.071658 0.07441 0.17914 0.03032-0.019292 0.07993-0.071658 0.17088-0.1819 0.36656-0.23151 0.64216-0.16261 0.99494 0.42168h0.01654q0.38585-0.38034 0.58704-0.42168 0.57602-0.113 0.89572 0.27836 0.31695 0.39136 0.31695 0.98392z"/>
  <path d="m28.419 5.0099q0.226 0 0.4079-0.20671 0.14607-0.16812 0.14607-0.82131-0.0028-0.32797-0.15434-0.49609-0.15434-0.16812-0.39963-0.16812-0.21222 0-0.36931 0.17639-0.18741 0.20946-0.18741 0.48783 0.0028 0.61736 0.18741 0.82131 0.18466 0.20395 0.36931 0.20671zm0.93982-1.7777q0.38861 0.38585 0.38861 0.93155 0 0.5457-0.39412 0.93431-0.39136 0.38585-0.8599 0.38309-0.03858 0.00276-0.07441 0-0.52917 0.022049-0.9288-0.37483-0.39688-0.39687-0.39688-0.94533 0.0028-0.55121 0.38585-0.93431 0.38585-0.38309 0.86265-0.38034 0.03583-0.00276 0.07441-0.00276 0.55397 0 0.94258 0.38861z"/>
 </g>
</svg>
